<?xml version="1.0" encoding="utf-8"?>
<!-- Generator: Adobe Illustrator 24.1.2, SVG Export Plug-In . SVG Version: 6.00 Build 0)  -->
<svg version="1.1" id="Layer_1" xmlns="http://www.w3.org/2000/svg" xmlns:xlink="http://www.w3.org/1999/xlink" x="0px" y="0px"
	 viewBox="0 0 124.1 124.1" style="enable-background:new 0 0 124.1 124.1;" xml:space="preserve">
<style type="text/css">
	.st0{fill:#FFFFFF;}
</style>
<path class="st0" d="M48.5,122.9c0-0.4-0.1-0.9-0.1-1.3c0-17.8,0-35.5,0-53.3c0-1.1-0.3-1.4-1.4-1.4c-5.5,0.1-11,0-16.4,0
	c-0.9,0-1.1-0.2-1.1-1.1c0-6.5,0-13.1,0-19.6c0-0.9,0.2-1.1,1.1-1.1c5.6,0,11.1,0,16.7,0c0.9,0,1.1-0.2,1.1-1.1
	c0-5.8-0.1-11.7,0.1-17.5c0.3-6.9,2.3-13.2,7.2-18.4c3.7-3.9,8.3-6.1,13.5-7.2c4.3-0.9,8.7-0.8,13.1-0.6c3.3,0.1,6.5,0.4,9.8,0.6
	c0.9,0,1.2,0.4,1.2,1.3c0,5.8,0,11.6,0,17.4c0,0.9-0.2,1-1.1,1c-4.4,0-8.7-0.2-13.1,0.2c-5.1,0.4-8,3.2-8.2,8.3
	c-0.2,5.1,0,10.1-0.1,15.2c0,0.9,0.5,0.8,1.1,0.8c6.4,0,12.9,0,19.3,0c1,0,1.2,0.2,1.1,1.2c-0.9,6.5-1.7,13-2.5,19.5
	c-0.1,1-0.5,1.2-1.4,1.2c-5.5-0.1-11,0-16.4,0c-0.8,0-1.1,0.1-1.1,1c0,18.1,0,36.2,0,54.3c0,0.2,0,0.4,0.1,0.6
	C63.5,122.9,56,122.9,48.5,122.9z"/>
</svg>
