<?xml version="1.0" encoding="utf-8"?>
<!-- Generator: Adobe Illustrator 24.1.2, SVG Export Plug-In . SVG Version: 6.00 Build 0)  -->
<svg version="1.1" id="Layer_1" xmlns="http://www.w3.org/2000/svg" xmlns:xlink="http://www.w3.org/1999/xlink" x="0px" y="0px"
	 viewBox="0 0 511 511" style="enable-background:new 0 0 511 511;" xml:space="preserve">
<style type="text/css">
	.st0{fill:#E8E8E8;}
	.st1{fill:#111111;}
	.st2{fill:#F0F0F0;}
	.st3{fill:#F1F1F1;}
	.st4{fill:#444444;}
	.st5{fill:#232323;}
	.st6{fill:#333333;}
	.st7{fill:#222222;}
	.st8{fill:#909090;}
	.st9{fill:#7F7F7F;}
	.st10{fill:#828282;}
	.st11{fill:#929292;}
	.st12{fill:#676767;}
	.st13{fill:#545454;}
	.st14{fill:#515151;}
	.st15{fill:#656565;}
	.st16{fill:#7A7A7A;}
	.st17{fill:#BABABA;}
	.st18{fill:#FFFFFF;}
</style>
<path class="st0" d="M0.9,236.5c0,14.3,0,28.6,0,42.9c-0.3,0.5-0.6,0.4-0.8,0c0-14.3,0-28.6,0-42.9C0.4,236.1,0.6,236.1,0.9,236.5z"
	/>
<path class="st1" d="M211,510.9c6.8,0,13.6-0.1,20.4,0c1.6,0,3.4-0.5,4.7,1c-8.3,0-16.7,0-25,0c-0.3-0.2-0.4-0.4-0.3-0.6
	C210.8,511.1,210.9,510.9,211,510.9z"/>
<path class="st1" d="M278,511.9c3.7-2.1,7.7-0.7,11.6-0.9c4.5-0.2,8.9-0.1,13.4,0c0.3,0.2,0.4,0.4,0.3,0.7c-0.1,0.2-0.2,0.3-0.3,0.3
	C294.7,511.9,286.3,511.9,278,511.9z"/>
<path class="st2" d="M0.9,236.5l-0.4,0l-0.4,0c0-7.6,0-15.3,0-22.9c0.3,0,0.6,0,0.8,0C0.9,221.2,0.9,228.9,0.9,236.5z"/>
<path class="st3" d="M0.1,279.5c0.3,0,0.6,0,0.8,0c0,7,0,14,0,21l-0.4,0l-0.4,0C0.1,293.4,0.1,286.4,0.1,279.5z"/>
<path class="st4" d="M187,511.9c2.8-2.1,6-0.5,9-0.9c0.3,0.2,0.5,0.4,0.4,0.6c-0.1,0.2-0.2,0.3-0.3,0.3
	C193,511.9,190,511.9,187,511.9z"/>
<path class="st5" d="M211,510.9c0,0.3,0,0.6,0,1c-2.7,0-5.3,0-8,0c-0.3-0.2-0.4-0.4-0.3-0.6c0.1-0.2,0.2-0.3,0.3-0.3
	C205.7,510.9,208.3,510.9,211,510.9z"/>
<path class="st6" d="M310,510.9c2.7,0,5.3,0,8,0.1c0.3,0.2,0.4,0.4,0.3,0.6c-0.1,0.2-0.2,0.3-0.3,0.3c-2.7,0-5.3,0-8,0
	c-0.3-0.2-0.4-0.4-0.3-0.6C309.8,511,309.9,510.9,310,510.9z"/>
<path class="st6" d="M203,510.9c0,0.3,0,0.6,0,1c-2.3,0-4.7,0-7,0c0-0.3,0-0.6,0-0.9C198.3,511,200.7,510.9,203,510.9z"/>
<path class="st7" d="M310,510.9c0,0.3,0,0.6,0,1c-2.3,0-4.7,0-7,0c0-0.3,0-0.7,0-1C305.3,510.9,307.7,510.9,310,510.9z"/>
<path class="st4" d="M318,511.9c0-0.3,0-0.6,0-0.9c2.3,0.2,4.9-1,7,0.9C322.6,511.9,320.3,511.9,318,511.9z"/>
<path class="st8" d="M174,511.9c2-1.6,4-1.5,6,0C178,511.9,176,511.9,174,511.9z"/>
<path class="st9" d="M330,511.9c2-1.5,4-1.6,6,0C334,511.9,332,511.9,330,511.9z"/>
<path class="st10" d="M511.1,152.7c0-1.1-0.8-2.3,0.8-2.9c0,1,0,2,0,3C511.6,153.2,511.3,153.2,511.1,152.7z"/>
<path class="st11" d="M511.9,360.3c-1.7-0.6-0.8-1.9-0.8-3c0.3-0.5,0.5-0.5,0.8,0C511.9,358.3,511.9,359.3,511.9,360.3z"/>
<path class="st12" d="M511.1,152.7c0.3,0,0.5,0,0.8,0c0,0.7,0,1.3,0,2c-0.3,0.5-0.6,0.4-0.8,0C511.1,154,511.1,153.4,511.1,152.7z"
	/>
<path class="st13" d="M511.1,154.7c0.3,0,0.6,0,0.8,0c0,0.7,0,1.3,0,2C511,156.3,510.9,155.6,511.1,154.7z"/>
<path class="st14" d="M511.1,353.3c-0.2-0.9-0.1-1.6,0.8-2c0,0.7,0,1.3,0,2C511.7,353.7,511.4,353.7,511.1,353.3z"/>
<path class="st15" d="M511.1,353.3c0.3,0,0.6,0,0.8,0c0,0.7,0,1.3,0,2c-0.3,0.4-0.6,0.4-0.9,0C511.1,354.6,511.1,354,511.1,353.3z"
	/>
<path class="st16" d="M511.1,355.3c0.3,0,0.6,0,0.9,0c0,0.7,0,1.3,0,2c-0.3,0-0.6,0-0.8,0C511.1,356.6,511.1,356,511.1,355.3z"/>
<path class="st17" d="M342,511.9c0.7-1.5,1.3-1.5,2,0C343.3,511.9,342.6,511.9,342,511.9z"/>
<g>
	<path class="st18" d="M511.9,145.8c-1-3.5-0.7-7.2-0.9-10.8c-1.2-23.7-7.7-46-20-66.2c-21.9-36.1-54.8-56.4-96.1-64.1
		c-21.8-4-43.8-3.9-65.7-3.9c-60.8-0.1-121.5-1.1-182.3,0.9c-21.8,0.7-43,4.9-63.1,13.6C55,27.8,33.4,48.2,19,76.1
		C6.2,100.7,1.7,127.3,1.2,154.6c-0.4,19.9-0.9,39.9-0.6,59.8c0,7.5,0,14.9,0,22.4c0,14.1,0,28.3,0,42.4c0,6.8,0,13.6,0,20.3
		c-0.1,17.4,0.2,34.9,0.4,52.3c0.2,17.6,1.5,35.1,5.7,52.3c6.5,26.6,18.8,50.1,39.1,68.8c28,25.7,61.8,36.7,99.4,38
		c6.3,0.2,12.6,0,18.8,0.9c3.3,0,6.7,0,10,0c2-0.8,4-0.8,6,0c2.3,0,4.7,0,7,0c3-1.1,6.2-0.2,9.2-0.5c2.3,0,4.7,0,7,0
		c2.7,0,5.4,0,8.1,0c8.2,0.3,16.5-0.6,24.7,0.5c14,0,28,0,42,0c8.2-1.1,16.5-0.2,24.7-0.5c2.4,0,4.8,0,7.2,0c2.6,0,5.2,0,7.8,0
		c2.4,0.3,5-0.6,7.3,0.5c1.7,0,3.3,0,5,0c2-0.8,4-0.8,6,0c2,0,4,0,6,0c0.7-0.6,1.3-0.6,2,0c1,0,2,0,3,0c3.1-1.1,6.2-0.4,9.3-0.5
		c14.8-0.5,29.6-1.1,44.1-4.3c32.6-7.1,59.9-22.7,80.7-49c18.8-23.9,27.9-51.4,29.8-81.6c0.2-3.8,0-7.6,0.9-11.3c0-1.7,0-3.3,0-5
		c-0.9-0.9-0.4-2-0.5-3c0-0.6,0-1.2,0-1.9c0-0.6,0-1.2,0-1.9c0.1-0.8-0.2-1.6,0.5-2.3c0-64.8,0-129.7,0-194.5
		c-0.7-0.6-0.5-1.5-0.5-2.3c0-0.6,0-1.2,0-1.8c0.1-1-0.3-2.1,0.5-2.9C511.9,148.4,511.9,147.1,511.9,145.8z M465.9,346.3
		c-0.5,16.4-1.1,32.9-5.5,48.9c-10.6,38.8-36.8,60.5-75.9,66.7c-28.9,4.6-58.1,3.6-87.3,4c-13.3,0.2-26.7,0-40,0
		c-37,0-74,0.4-110.9-2c-18.6-1.2-36.7-4.8-52.9-14.4C68,434.5,55.3,411,51.1,382.5c-4.1-28.4-3.4-57.1-3.7-85.6
		c-0.4-41.4-0.5-82.8,0.7-124.2c0.5-17.9,0.8-35.9,5.3-53.4c9.9-38.1,35-59.9,73.2-67.2c22.2-4.2,44.8-3.9,67.2-4.2
		c48-0.6,96-0.7,143.9,0.3c18,0.4,36,0.7,53.6,4.7c40.1,9,65.6,36.5,71.4,77.2c3.6,24.8,3.5,49.7,3.7,74.6
		C467,251.8,467.4,299.1,465.9,346.3z"/>
	<path class="st18" d="M424.2,120.4c-0.1,17-13.8,30.5-30.9,30.4c-16.9-0.1-30.5-14-30.3-31.1c0.2-16.7,13.9-30.1,30.7-30.1
		C410.9,89.7,424.3,103.3,424.2,120.4z"/>
	<path class="st18" d="M257.1,125.4c-72.4-0.2-131.5,58.5-131.7,131c-0.2,72.2,58.7,131.1,131.3,131.4
		c72.4,0.3,131.4-58.5,131.6-131.1C388.6,184.4,329.8,125.6,257.1,125.4z M256.7,341.6c-47.1-0.1-84.9-38-84.9-85
		c0-47.2,38.2-85.2,85.5-85c47.1,0.1,84.9,38,84.9,85C342.1,303.8,304,341.7,256.7,341.6z"/>
</g>
</svg>
