<?xml version="1.0" encoding="utf-8"?>
<!-- Generator: Adobe Illustrator 24.1.2, SVG Export Plug-In . SVG Version: 6.00 Build 0)  -->
<svg version="1.1" id="Layer_1" xmlns="http://www.w3.org/2000/svg" xmlns:xlink="http://www.w3.org/1999/xlink" x="0px" y="0px"
	 viewBox="0 0 384 384" style="enable-background:new 0 0 384 384;" xml:space="preserve">
<style type="text/css">
	.st0{fill:#FFFFFF;}
</style>
<path class="st0" d="M44.4,289.4c27,1.3,52.3-4.4,75.4-18.7c3.7-2.3,7.3-4.6,10.9-7.8c-28.6-2.5-47.7-17.2-58.3-43.9
	c9.5,1.4,18.5,1.1,27.7-1c-30.9-9.6-47.3-30.2-49.7-62.9c9.2,4.6,18,7.5,28.3,7.7c-4.7-3.9-8.9-7.5-12.4-11.9
	c-16.8-21.3-20-44.2-8.1-68.9c1.2-2.4,1.7-3.4,4-0.7c27,31.6,60.8,51.8,101.7,60.1c7.3,1.5,14.8,2.4,22.3,2.8c2.3,0.1,3-0.1,2.6-2.7
	c-6-33.9,15.9-66.5,49.4-73c21.4-4.1,40.3,1.5,56.3,16.4c1.7,1.6,3.1,2.1,5.5,1.5c11.7-2.9,22.8-7,33.4-12.8
	c0.7-0.4,1.3-1.2,2.8-0.5c-4.8,14.1-13.5,25.1-26.9,33.4c12.5-1.4,23.6-4.9,35-8.7c-0.9,1.4-1.8,2.8-2.8,4.1
	c-7.1,9.9-15.6,18.5-25.4,25.8c-2.2,1.7-2.8,3.3-2.7,5.9c2.2,69.3-38.4,137.8-100.7,166.2c-58.6,26.7-116.5,23.2-172.2-9.8
	C41.5,288.2,43.1,289.3,44.4,289.4z"/>
</svg>
